<svg width="657" height="656" viewBox="0 0 657 656" fill="none" xmlns="http://www.w3.org/2000/svg">
<path d="M279.835 72.6484V240.635V268.951V350.681V378.997V414.388V442.705V472.288V500.605V530.202V558.518V599.036H235.386V558.518V530.202V500.605V472.288V442.705V414.388V378.997V350.681V268.951V240.635V72.6484H279.835Z" fill="#7729AF" stroke="#030328" stroke-width="13.5236" stroke-linecap="round"/>
<path d="M278.207 277.77L278.207 307.865L248.112 307.865L248.112 277.77L278.207 277.77Z" fill="#333152"/>
<path d="M273.095 85.3955V166.362V180.009V247.328V260.975V328.295V341.942V409.261V422.908V490.227V503.875V584.841H255.133V503.875V490.227V422.908V409.261V341.942V328.295V260.975V247.328V180.009V166.362V85.3955H273.095Z" fill="#9043C6"/>
<mask id="path-4-outside-1_1067_4447" maskUnits="userSpaceOnUse" x="-0.0561523" y="101.828" width="297" height="219" fill="black">
<rect fill="white" x="-0.0561523" y="101.828" width="297" height="219"/>
<path fill-rule="evenodd" clip-rule="evenodd" d="M282.944 143.626L282.944 115.828L267.505 115.828L267.505 143.626H282.944ZM267.485 143.627L267.485 115.829H252.046V122.009L14.1015 122.009V137.483H29.5407V152.923H44.98V168.362H60.4193V183.801L75.8586 183.801V199.223H91.3157V214.68L91.3158 229.271H75.8587V244.693H60.4193V260.132H44.9801V275.571H29.5408V291.011H14.1015V306.486L252.047 306.486L252.047 285.698H267.485L267.485 257.901H252.046V275.571H236.608V244.711V244.693V213.814L236.607 183.801V183.784V152.923H252.047V143.627H267.485ZM282.944 257.901V285.698H267.505L267.505 257.901H282.944Z"/>
</mask>
<path fill-rule="evenodd" clip-rule="evenodd" d="M282.944 143.626L282.944 115.828L267.505 115.828L267.505 143.626H282.944ZM267.485 143.627L267.485 115.829H252.046V122.009L14.1015 122.009V137.483H29.5407V152.923H44.98V168.362H60.4193V183.801L75.8586 183.801V199.223H91.3157V214.68L91.3158 229.271H75.8587V244.693H60.4193V260.132H44.9801V275.571H29.5408V291.011H14.1015V306.486L252.047 306.486L252.047 285.698H267.485L267.485 257.901H252.046V275.571H236.608V244.711V244.693V213.814L236.607 183.801V183.784V152.923H252.047V143.627H267.485ZM282.944 257.901V285.698H267.505L267.505 257.901H282.944Z" fill="#EC3ABF"/>
<path d="M282.944 115.828L282.944 102.305H296.467V115.828L282.944 115.828ZM282.944 143.626L296.467 143.626L296.467 157.15H282.944V143.626ZM267.505 115.828L253.981 115.828V102.305L267.505 102.305V115.828ZM267.505 143.626V157.15H253.981V143.626H267.505ZM267.485 115.829V102.305H281.009L281.009 115.829L267.485 115.829ZM267.485 143.627L281.009 143.627L281.009 157.15H267.485V143.627ZM252.046 115.829H238.522V102.305H252.046V115.829ZM252.046 122.009H265.57V135.532H252.046V122.009ZM14.1015 122.009H0.577881V108.485L14.1015 108.485V122.009ZM14.1015 137.483V151.007H0.577881V137.483H14.1015ZM29.5407 137.483V123.96H43.0643V137.483H29.5407ZM29.5407 152.923V166.446H16.0171V152.923H29.5407ZM44.98 152.923V139.399H58.5036V152.923H44.98ZM44.98 168.362V181.886H31.4564V168.362H44.98ZM60.4193 168.362V154.838H73.9429V168.362H60.4193ZM60.4193 183.801V197.325L46.8957 197.325V183.801H60.4193ZM75.8586 183.801L75.8586 170.278L89.3822 170.278V183.801H75.8586ZM75.8586 199.223V212.746H62.335V199.223H75.8586ZM91.3157 199.223V185.699H104.839V199.223H91.3157ZM91.3157 214.68L77.7921 214.68V214.68H91.3157ZM91.3158 229.271L104.839 229.271L104.839 242.795H91.3158V229.271ZM75.8587 229.271H62.3351V215.748H75.8587V229.271ZM75.8587 244.693H89.3823V258.217H75.8587V244.693ZM60.4193 244.693H46.8957V231.169H60.4193V244.693ZM60.4193 260.132H73.9429V273.656H60.4193V260.132ZM44.9801 260.132H31.4565V246.609H44.9801V260.132ZM44.9801 275.571H58.5037V289.095H44.9801V275.571ZM29.5408 275.571H16.0172V262.048H29.5408V275.571ZM29.5408 291.011H43.0644V304.534H29.5408V291.011ZM14.1015 291.011H0.577911V277.487H14.1015V291.011ZM14.1015 306.486V320.009L0.577911 320.009V306.486H14.1015ZM252.047 306.486H265.57V320.009H252.047L252.047 306.486ZM252.047 285.698L238.523 285.698V272.175H252.047V285.698ZM267.485 285.698H281.009L281.009 299.222H267.485V285.698ZM267.485 257.901V244.377H281.009L281.009 257.901H267.485ZM252.046 257.901H238.522V244.377H252.046V257.901ZM252.046 275.571H265.57V289.095H252.046V275.571ZM236.608 275.571V289.095H223.084V275.571H236.608ZM236.608 213.814L250.131 213.814V213.814H236.608ZM236.607 183.801L223.084 183.801V183.801H236.607ZM236.607 152.923H223.084V139.399H236.607V152.923ZM252.047 152.923H265.57V166.446H252.047V152.923ZM252.047 143.627H238.523V130.103H252.047V143.627ZM282.944 285.698H296.467V299.222H282.944V285.698ZM282.944 257.901V244.377H296.467V257.901H282.944ZM267.505 285.698V299.222H253.981V285.698H267.505ZM267.505 257.901H253.981V244.377H267.505V257.901ZM296.467 115.828L296.467 143.626L269.42 143.626L269.42 115.828L296.467 115.828ZM267.505 102.305L282.944 102.305L282.944 129.352L267.505 129.352L267.505 102.305ZM253.981 143.626L253.981 115.828L281.028 115.828L281.028 143.626L253.981 143.626ZM282.944 157.15H267.505V130.102H282.944V157.15ZM281.009 115.829L281.009 143.627L253.962 143.627V115.829L281.009 115.829ZM252.046 102.305H267.485V129.352H252.046V102.305ZM238.522 122.009V115.829H265.57V122.009H238.522ZM14.1015 108.485L252.046 108.485L252.046 135.532L14.1015 135.532V108.485ZM0.577881 137.483V122.009H27.6251V137.483H0.577881ZM29.5407 151.007H14.1015V123.96H29.5407V151.007ZM16.0171 152.923V137.483H43.0643V152.923H16.0171ZM44.98 166.446H29.5407V139.399H44.98V166.446ZM31.4564 168.362V152.923H58.5036V168.362H31.4564ZM60.4193 181.886H44.98V154.838H60.4193V181.886ZM46.8957 183.801V168.362H73.9429V183.801H46.8957ZM75.8586 197.325L60.4193 197.325L60.4193 170.278L75.8586 170.278L75.8586 197.325ZM62.335 199.223V183.801H89.3822V199.223H62.335ZM91.3157 212.746H75.8586V185.699H91.3157V212.746ZM77.7921 214.68V199.223H104.839V214.68H77.7921ZM77.7921 229.271L77.7921 214.68L104.839 214.68L104.839 229.271L77.7921 229.271ZM75.8587 215.748H91.3158V242.795H75.8587V215.748ZM62.3351 244.693V229.271H89.3823V244.693H62.3351ZM60.4193 231.169H75.8587V258.217H60.4193V231.169ZM46.8957 260.132V244.693H73.9429V260.132H46.8957ZM44.9801 246.609H60.4193V273.656H44.9801V246.609ZM31.4565 275.571V260.132H58.5037V275.571H31.4565ZM29.5408 262.048H44.9801V289.095H29.5408V262.048ZM16.0172 291.011V275.571H43.0644V291.011H16.0172ZM14.1015 277.487H29.5408V304.534H14.1015V277.487ZM0.577911 306.486V291.011H27.6251V306.486H0.577911ZM252.047 320.009L14.1015 320.009V292.962L252.047 292.962L252.047 320.009ZM265.57 285.698L265.57 306.486L238.523 306.486V285.698L265.57 285.698ZM267.485 299.222H252.047V272.175H267.485V299.222ZM281.009 257.901L281.009 285.698H253.962V257.901H281.009ZM252.046 244.377H267.485V271.424H252.046V244.377ZM238.522 275.571V257.901H265.57V275.571H238.522ZM236.608 262.048H252.046V289.095H236.608V262.048ZM250.131 244.711V275.571H223.084V244.711H250.131ZM250.131 244.693V244.711H223.084V244.693H250.131ZM250.131 213.814V244.693H223.084V213.814H250.131ZM250.131 183.801L250.131 213.814L223.084 213.814L223.084 183.801L250.131 183.801ZM250.131 183.784V183.801H223.084V183.784H250.131ZM250.131 152.923V183.784H223.084V152.923H250.131ZM252.047 166.446H236.607V139.399H252.047V166.446ZM265.57 143.627V152.923H238.523V143.627H265.57ZM267.485 157.15H252.047V130.103H267.485V157.15ZM269.42 285.698V257.901H296.467V285.698H269.42ZM267.505 272.175H282.944V299.222H267.505V272.175ZM281.028 257.901L281.028 285.698H253.981L253.981 257.901H281.028ZM282.944 271.424H267.505V244.377H282.944V271.424Z" fill="black" mask="url(#path-4-outside-1_1067_4447)"/>
<path d="M138.068 121.936L138.068 306.541L91.1703 306.541L91.1703 121.936L138.068 121.936Z" fill="#BF1393"/>
<path d="M218.721 121.936L218.721 306.541L171.823 306.541L171.823 121.936L218.721 121.936Z" fill="#BF1393"/>
<path d="M409.526 0.0234375H425.933V16.8162H409.526V0.0234375Z" fill="#030328"/>
<path d="M425.934 16.8164H442.341V33.6163H425.934V16.8164Z" fill="#030328"/>
<path d="M425.934 0.0234375H442.341V16.8162H425.934V0.0234375Z" fill="#030328"/>
<path d="M442.34 33.6162H458.754V50.409H442.34V33.6162Z" fill="#030328"/>
<path d="M442.34 16.8164H458.754V33.6163H442.34V16.8164Z" fill="#F7941D"/>
<path d="M442.34 0.0234375H458.754V16.8162H442.34V0.0234375Z" fill="#030328"/>
<path d="M458.747 167.986H475.153V184.779H458.747V167.986Z" fill="#030328"/>
<path d="M458.747 151.179H475.153V167.979H458.747V151.179Z" fill="#030328"/>
<path d="M458.747 134.387H475.153V151.179H458.747V134.387Z" fill="#030328"/>
<path d="M458.747 117.594H475.153V134.387H458.747V117.594Z" fill="#030328"/>
<path d="M458.747 100.801H475.153V117.594H458.747V100.801Z" fill="#030328"/>
<path d="M458.747 84.001H475.153V100.801H458.747V84.001Z" fill="#030328"/>
<path d="M458.747 67.208H475.153V84.0008H458.747V67.208Z" fill="#030328"/>
<path d="M458.747 50.4092H475.153V67.2019H458.747V50.4092Z" fill="#030328"/>
<path d="M458.747 33.6162H475.153V50.409H458.747V33.6162Z" fill="#F7941D"/>
<path d="M458.747 16.8164H475.153V33.6163H458.747V16.8164Z" fill="#F7941D"/>
<path d="M458.747 0.0234375H475.153V16.8162H458.747V0.0234375Z" fill="#030328"/>
<path d="M475.154 604.668H491.561V621.461H475.154V604.668Z" fill="#030328"/>
<path d="M475.154 587.87H491.561V604.662H475.154V587.87Z" fill="#030328"/>
<path d="M475.154 184.779H491.561V201.572H475.154V184.779Z" fill="#030328"/>
<path d="M475.154 167.986H491.561V184.779H475.154V167.986Z" fill="#A97C50"/>
<path d="M475.154 151.179H491.561V167.979H475.154V151.179Z" fill="#A97C50"/>
<path d="M475.154 134.387H491.561V151.179H475.154V134.387Z" fill="#030328"/>
<path d="M475.154 117.594H491.561V134.387H475.154V117.594Z" fill="#030328"/>
<path d="M475.154 100.801H491.561V117.594H475.154V100.801Z" fill="#030328"/>
<path d="M475.154 84.001H491.561V100.801H475.154V84.001Z" fill="#030328"/>
<path d="M475.154 67.208H491.561V84.0008H475.154V67.208Z" fill="#FEB179"/>
<path d="M475.154 50.4092H491.561V67.2019H475.154V50.4092Z" fill="#F7941D"/>
<path d="M475.154 33.6162H491.561V50.409H475.154V33.6162Z" fill="#F7941D"/>
<path d="M475.154 16.8164H491.561V33.6163H475.154V16.8164Z" fill="#F7941D"/>
<path d="M475.154 0.0234375H491.561V16.8162H475.154V0.0234375Z" fill="#030328"/>
<path d="M491.554 604.668H507.96V621.461H491.554V604.668Z" fill="#030328"/>
<path d="M491.554 587.87H507.96V604.662H491.554V587.87Z" fill="white"/>
<path d="M491.49 349.664H507.973V587.784H491.49V349.664Z" fill="#030328"/>
<path d="M491.554 319.143H507.96V335.936H491.554V319.143Z" fill="#030328"/>
<path d="M491.554 302.343H507.96V319.143H491.554V302.343Z" fill="#030328"/>
<path d="M491.554 285.55H507.96V302.343H491.554V285.55Z" fill="#030328"/>
<path d="M491.554 268.75H507.96V285.543H491.554V268.75Z" fill="#030328"/>
<path d="M491.554 251.957H507.96V268.75H491.554V251.957Z" fill="#030328"/>
<path d="M491.554 235.165H507.96V251.957H491.554V235.165Z" fill="#030328"/>
<path d="M491.554 218.364H507.96V235.164H491.554V218.364Z" fill="#030328"/>
<path d="M491.554 201.572H507.96V218.365H491.554V201.572Z" fill="#030328"/>
<path d="M491.554 184.779H507.96V201.572H491.554V184.779Z" fill="#A97C50"/>
<path d="M491.554 167.986H507.96V184.779H491.554V167.986Z" fill="#A97C50"/>
<path d="M491.554 151.179H507.96V167.979H491.554V151.179Z" fill="#A97C50"/>
<path d="M491.554 134.387H507.96V151.179H491.554V134.387Z" fill="#030328"/>
<path d="M491.554 117.594H507.96V134.387H491.554V117.594Z" fill="#030328"/>
<path d="M491.554 84.001H507.96V100.801H491.554V84.001Z" fill="#030328"/>
<path d="M491.554 67.208H507.96V84.0008H491.554V67.208Z" fill="#FEB179"/>
<path d="M491.554 50.4092H507.96V67.2019H491.554V50.4092Z" fill="#F7941D"/>
<path d="M491.554 33.6162H507.96V50.409H491.554V33.6162Z" fill="#F7941D"/>
<path d="M491.554 16.8164H507.96V33.6163H491.554V16.8164Z" fill="#F7941D"/>
<path d="M491.554 0.0234375H507.96V16.8162H491.554V0.0234375Z" fill="#030328"/>
<path d="M507.96 604.668H524.374V621.461H507.96V604.668Z" fill="#030328"/>
<path d="M507.96 587.87H524.374V604.662H507.96V587.87Z" fill="white"/>
<path d="M507.96 571.069H524.374V587.869H507.96V571.069Z" fill="#3722E2"/>
<path d="M507.96 554.277H524.374V571.07H507.96V554.277Z" fill="#3722E2"/>
<path d="M507.96 537.483H524.374V554.276H507.96V537.483Z" fill="#3722E2"/>
<path d="M507.96 520.691H524.374V537.484H507.96V520.691Z" fill="#A236EE"/>
<path d="M507.96 503.892H524.374V520.692H507.96V503.892Z" fill="#A236EE"/>
<path d="M507.96 487.099H524.374V503.892H507.96V487.099Z" fill="#A236EE"/>
<path d="M507.96 470.298H524.374V487.091H507.96V470.298Z" fill="#A236EE"/>
<path d="M507.96 453.506H524.374V470.299H507.96V453.506Z" fill="#A236EE"/>
<path d="M507.96 436.707H524.374V453.506H507.96V436.707Z" fill="#A236EE"/>
<path d="M507.96 419.914H524.374V436.706H507.96V419.914Z" fill="#A236EE"/>
<path d="M507.96 403.121H524.374V419.913H507.96V403.121Z" fill="#030328"/>
<path d="M507.96 386.328H524.374V403.12H507.96V386.328Z" fill="#EC3ABF"/>
<path d="M507.96 369.521H524.374V386.32H507.96V369.521Z" fill="#EC3ABF"/>
<path d="M507.96 352.728H524.374V369.521H507.96V352.728Z" fill="#EC3ABF"/>
<path d="M507.96 335.935H524.374V352.728H507.96V335.935Z" fill="#EC3ABF"/>
<path d="M507.96 319.143H524.374V335.936H507.96V319.143Z" fill="#EC3ABF"/>
<path d="M507.96 302.343H524.374V319.143H507.96V302.343Z" fill="#EC3ABF"/>
<path d="M507.96 285.55H524.374V302.343H507.96V285.55Z" fill="#EC3ABF"/>
<path d="M507.96 268.75H524.374V285.543H507.96V268.75Z" fill="#EC3ABF"/>
<path d="M507.96 251.957H524.374V268.75H507.96V251.957Z" fill="#EC3ABF"/>
<path d="M507.96 235.165H524.374V251.957H507.96V235.165Z" fill="#EC3ABF"/>
<path d="M507.96 218.364H524.374V235.164H507.96V218.364Z" fill="#A236EE"/>
<path d="M507.96 201.572H524.374V218.365H507.96V201.572Z" fill="#030328"/>
<path d="M507.96 184.779H524.374V201.572H507.96V184.779Z" fill="#A97C50"/>
<path d="M507.96 167.986H524.374V184.779H507.96V167.986Z" fill="#A97C50"/>
<path d="M507.96 151.179H524.374V167.979H507.96V151.179Z" fill="#A97C50"/>
<path d="M507.96 134.387H524.374V151.179H507.96V134.387Z" fill="#030328"/>
<path d="M507.96 84.001H524.374V100.801H507.96V84.001Z" fill="#030328"/>
<path d="M507.96 67.208H524.374V84.0008H507.96V67.208Z" fill="#FEB179"/>
<path d="M507.96 50.4092H524.374V67.2019H507.96V50.4092Z" fill="#F7941D"/>
<path d="M507.96 33.6162H524.374V50.409H507.96V33.6162Z" fill="#F7941D"/>
<path d="M507.96 16.8164H524.374V33.6163H507.96V16.8164Z" fill="#F7941D"/>
<path d="M507.96 0.0234375H524.374V16.8162H507.96V0.0234375Z" fill="#030328"/>
<path d="M524.368 604.668H540.774V621.461H524.368V604.668Z" fill="#030328"/>
<path d="M524.368 587.87H540.774V604.662H524.368V587.87Z" fill="white"/>
<path d="M524.368 571.069H540.774V587.869H524.368V571.069Z" fill="#3722E2"/>
<path d="M524.368 554.277H540.774V571.07H524.368V554.277Z" fill="#3722E2"/>
<path d="M524.368 537.483H540.774V554.276H524.368V537.483Z" fill="#3722E2"/>
<path d="M524.368 520.691H540.774V537.484H524.368V520.691Z" fill="#3722E2"/>
<path d="M524.368 503.892H540.774V520.692H524.368V503.892Z" fill="#3722E2"/>
<path d="M524.368 487.099H540.774V503.892H524.368V487.099Z" fill="#3722E2"/>
<path d="M524.368 470.298H540.774V487.091H524.368V470.298Z" fill="#3722E2"/>
<path d="M524.368 453.506H540.774V470.299H524.368V453.506Z" fill="#3722E2"/>
<path d="M524.368 436.707H540.774V453.506H524.368V436.707Z" fill="#3722E2"/>
<path d="M524.368 419.914H540.774V436.706H524.368V419.914Z" fill="#A236EE"/>
<path d="M524.368 403.121H540.774V419.913H524.368V403.121Z" fill="#030328"/>
<path d="M524.368 386.328H540.774V403.12H524.368V386.328Z" fill="#EC3ABF"/>
<path d="M524.368 369.521H540.774V386.32H524.368V369.521Z" fill="#EC3ABF"/>
<path d="M524.368 352.728H540.774V369.521H524.368V352.728Z" fill="#EC3ABF"/>
<path d="M524.368 335.935H540.774V352.728H524.368V335.935Z" fill="#EC3ABF"/>
<path d="M524.368 319.143H540.774V335.936H524.368V319.143Z" fill="#EC3ABF"/>
<path d="M524.368 302.343H540.774V319.143H524.368V302.343Z" fill="#EC3ABF"/>
<path d="M524.368 285.55H540.774V302.343H524.368V285.55Z" fill="#EC3ABF"/>
<path d="M524.368 268.75H540.774V285.543H524.368V268.75Z" fill="#EC3ABF"/>
<path d="M524.368 251.957H540.774V268.75H524.368V251.957Z" fill="#EC3ABF"/>
<path d="M524.368 235.165H540.774V251.957H524.368V235.165Z" fill="#EC3ABF"/>
<path d="M524.368 218.364H540.774V235.164H524.368V218.364Z" fill="#A236EE"/>
<path d="M524.368 201.572H540.774V218.365H524.368V201.572Z" fill="#030328"/>
<path d="M524.368 184.779H540.774V201.572H524.368V184.779Z" fill="#A97C50"/>
<path d="M524.368 167.986H540.774V184.779H524.368V167.986Z" fill="white"/>
<path d="M524.368 151.179H540.774V167.979H524.368V151.179Z" fill="#A97C50"/>
<path d="M524.368 134.387H540.774V151.179H524.368V134.387Z" fill="#FEB179"/>
<path d="M524.368 117.594H540.774V134.387H524.368V117.594Z" fill="#030328"/>
<path d="M524.368 100.801H540.774V117.594H524.368V100.801Z" fill="#030328"/>
<path d="M524.368 84.001H540.774V100.801H524.368V84.001Z" fill="#FEB179"/>
<path d="M524.368 67.208H540.774V84.0008H524.368V67.208Z" fill="#FEB179"/>
<path d="M524.368 50.4092H540.774V67.2019H524.368V50.4092Z" fill="#F7941D"/>
<path d="M524.368 33.6162H540.774V50.409H524.368V33.6162Z" fill="#F7941D"/>
<path d="M524.368 16.8164H540.774V33.6163H524.368V16.8164Z" fill="#F7941D"/>
<path d="M524.368 0.0234375H540.774V16.8162H524.368V0.0234375Z" fill="#030328"/>
<path d="M540.774 604.668H557.181V621.461H540.774V604.668Z" fill="#030328"/>
<path d="M540.774 587.87H557.181V604.662H540.774V587.87Z" fill="white"/>
<path d="M540.774 571.069H557.181V587.869H540.774V571.069Z" fill="#3722E2"/>
<path d="M540.774 554.277H557.181V571.07H540.774V554.277Z" fill="#3722E2"/>
<path d="M540.774 537.483H557.181V554.276H540.774V537.483Z" fill="#3722E2"/>
<path d="M540.774 520.691H557.181V537.484H540.774V520.691Z" fill="#3722E2"/>
<path d="M540.774 503.892H557.181V520.692H540.774V503.892Z" fill="#3722E2"/>
<path d="M540.774 487.099H557.181V503.892H540.774V487.099Z" fill="#3722E2"/>
<path d="M540.774 470.298H557.181V487.091H540.774V470.298Z" fill="#3722E2"/>
<path d="M540.774 453.506H557.181V470.299H540.774V453.506Z" fill="#3722E2"/>
<path d="M540.774 436.707H557.181V453.506H540.774V436.707Z" fill="#3722E2"/>
<path d="M540.774 419.914H557.181V436.706H540.774V419.914Z" fill="#A236EE"/>
<path d="M540.774 403.121H557.181V419.913H540.774V403.121Z" fill="#030328"/>
<path d="M540.774 386.328H557.181V403.12H540.774V386.328Z" fill="#EC3ABF"/>
<path d="M540.774 369.521H557.181V386.32H540.774V369.521Z" fill="#EC3ABF"/>
<path d="M540.774 352.728H557.181V369.521H540.774V352.728Z" fill="#EC3ABF"/>
<path d="M540.774 335.935H557.181V352.728H540.774V335.935Z" fill="#EC3ABF"/>
<path d="M540.774 319.143H557.181V335.936H540.774V319.143Z" fill="#EC3ABF"/>
<path d="M540.774 302.343H557.181V319.143H540.774V302.343Z" fill="#EC3ABF"/>
<path d="M540.774 285.55H557.181V302.343H540.774V285.55Z" fill="#EC3ABF"/>
<path d="M540.774 268.75H557.181V285.543H540.774V268.75Z" fill="#EC3ABF"/>
<path d="M540.774 251.957H557.181V268.75H540.774V251.957Z" fill="#EC3ABF"/>
<path d="M540.774 235.165H557.181V251.957H540.774V235.165Z" fill="#EC3ABF"/>
<path d="M540.774 218.364H557.181V235.164H540.774V218.364Z" fill="#A236EE"/>
<path d="M540.774 201.572H557.181V218.365H540.774V201.572Z" fill="#030328"/>
<path d="M540.774 184.779H557.181V201.572H540.774V184.779Z" fill="#A97C50"/>
<path d="M540.774 167.986H557.181V184.779H540.774V167.986Z" fill="white"/>
<path d="M540.774 151.179H557.181V167.979H540.774V151.179Z" fill="#A97C50"/>
<path d="M540.774 134.387H557.181V151.179H540.774V134.387Z" fill="#030328"/>
<path d="M540.774 117.594H557.181V134.387H540.774V117.594Z" fill="#030328"/>
<path d="M540.774 100.801H557.181V117.594H540.774V100.801Z" fill="#030328"/>
<path d="M540.774 84.001H557.181V100.801H540.774V84.001Z" fill="#030328"/>
<path d="M540.774 67.208H557.181V84.0008H540.774V67.208Z" fill="#FEB179"/>
<path d="M540.774 50.4092H557.181V67.2019H540.774V50.4092Z" fill="#F7941D"/>
<path d="M540.774 33.6162H557.181V50.409H540.774V33.6162Z" fill="#F7941D"/>
<path d="M540.774 16.8164H557.181V33.6163H540.774V16.8164Z" fill="#F7941D"/>
<path d="M540.774 0.0234375H557.181V16.8162H540.774V0.0234375Z" fill="#030328"/>
<path d="M557.173 621.462H573.58V638.255H557.173V621.462Z" fill="#030328"/>
<path d="M557.173 604.668H573.58V621.461H557.173V604.668Z" fill="white"/>
<path d="M557.173 587.87H573.58V604.662H557.173V587.87Z" fill="#030328"/>
<path d="M557.173 571.069H573.58V587.869H557.173V571.069Z" fill="#030328"/>
<path d="M557.173 554.277H573.58V571.07H557.173V554.277Z" fill="#030328"/>
<path d="M557.173 537.483H573.58V554.276H557.173V537.483Z" fill="#030328"/>
<path d="M557.173 520.691H573.58V537.484H557.173V520.691Z" fill="#030328"/>
<path d="M557.173 503.892H573.58V520.692H557.173V503.892Z" fill="#030328"/>
<path d="M557.173 487.099H573.58V503.892H557.173V487.099Z" fill="#030328"/>
<path d="M557.173 470.298H573.58V487.091H557.173V470.298Z" fill="#030328"/>
<path d="M557.173 453.506H573.58V470.299H557.173V453.506Z" fill="#030328"/>
<path d="M557.173 436.707H573.58V453.506H557.173V436.707Z" fill="#A236EE"/>
<path d="M557.173 419.914H573.58V436.706H557.173V419.914Z" fill="#030328"/>
<path d="M557.173 403.121H573.58V419.913H557.173V403.121Z" fill="#EC3ABF"/>
<path d="M557.173 386.328H573.58V403.12H557.173V386.328Z" fill="#EC3ABF"/>
<path d="M557.173 369.521H573.58V386.32H557.173V369.521Z" fill="#EC3ABF"/>
<path d="M557.173 352.728H573.58V369.521H557.173V352.728Z" fill="#EC3ABF"/>
<path d="M557.173 335.935H573.58V352.728H557.173V335.935Z" fill="#EC3ABF"/>
<path d="M557.173 319.143H573.58V335.936H557.173V319.143Z" fill="#EC3ABF"/>
<path d="M557.173 302.343H573.58V319.143H557.173V302.343Z" fill="#EC3ABF"/>
<path d="M557.173 285.55H573.58V302.343H557.173V285.55Z" fill="#EC3ABF"/>
<path d="M557.173 268.75H573.58V285.543H557.173V268.75Z" fill="#EC3ABF"/>
<path d="M557.173 251.957H573.58V268.75H557.173V251.957Z" fill="#EC3ABF"/>
<path d="M557.173 235.165H573.58V251.957H557.173V235.165Z" fill="#EC3ABF"/>
<path d="M557.173 218.364H573.58V235.164H557.173V218.364Z" fill="#A236EE"/>
<path d="M557.173 201.572H573.58V218.365H557.173V201.572Z" fill="#030328"/>
<path d="M557.173 184.779H573.58V201.572H557.173V184.779Z" fill="#A97C50"/>
<path d="M557.173 167.986H573.58V184.779H557.173V167.986Z" fill="white"/>
<path d="M557.173 151.179H573.58V167.979H557.173V151.179Z" fill="#A97C50"/>
<path d="M557.173 134.387H573.58V151.179H557.173V134.387Z" fill="#030328"/>
<path d="M557.173 84.001H573.58V100.801H557.173V84.001Z" fill="#030328"/>
<path d="M557.173 67.208H573.58V84.0008H557.173V67.208Z" fill="#FEB179"/>
<path d="M557.173 50.4092H573.58V67.2019H557.173V50.4092Z" fill="#F7941D"/>
<path d="M557.173 33.6162H573.58V50.409H557.173V33.6162Z" fill="#F7941D"/>
<path d="M557.173 16.8164H573.58V33.6163H557.173V16.8164Z" fill="#F7941D"/>
<path d="M557.173 0.0234375H573.58V16.8162H557.173V0.0234375Z" fill="#030328"/>
<path d="M573.581 621.462H589.995V638.255H573.581V621.462Z" fill="#030328"/>
<path d="M573.581 604.668H589.995V621.461H573.581V604.668Z" fill="white"/>
<path d="M573.581 587.87H589.995V604.662H573.581V587.87Z" fill="#3722E2"/>
<path d="M573.581 571.069H589.995V587.869H573.581V571.069Z" fill="#3722E2"/>
<path d="M573.581 554.277H589.995V571.07H573.581V554.277Z" fill="#3722E2"/>
<path d="M573.581 537.483H589.995V554.276H573.581V537.483Z" fill="#3722E2"/>
<path d="M573.581 520.691H589.995V537.484H573.581V520.691Z" fill="#A236EE"/>
<path d="M573.581 503.892H589.995V520.692H573.581V503.892Z" fill="#A236EE"/>
<path d="M573.581 487.099H589.995V503.892H573.581V487.099Z" fill="#A236EE"/>
<path d="M573.581 470.298H589.995V487.091H573.581V470.298Z" fill="#A236EE"/>
<path d="M573.581 453.506H589.995V470.299H573.581V453.506Z" fill="#A236EE"/>
<path d="M573.581 436.707H589.995V453.506H573.581V436.707Z" fill="#A236EE"/>
<path d="M573.581 419.913H607.053V436.706H573.581V419.913Z" fill="#030328"/>
<path d="M573.581 403.121H607.053V419.913H573.581V403.121Z" fill="#EC3ABF"/>
<path d="M573.581 386.328H607.053V403.12H573.581V386.328Z" fill="#EC3ABF"/>
<path d="M573.581 369.521H607.053V386.32H573.581V369.521Z" fill="#EC3ABF"/>
<path d="M573.581 349.682H607.053V369.521H573.581V349.682Z" fill="#EC3ABF"/>
<path d="M573.581 335.935H589.995V352.728H573.581V335.935Z" fill="#EC3ABF"/>
<path d="M573.581 319.143H589.995V335.936H573.581V319.143Z" fill="#EC3ABF"/>
<path d="M573.581 302.343H589.995V319.143H573.581V302.343Z" fill="#EC3ABF"/>
<path d="M573.581 285.55H589.995V302.343H573.581V285.55Z" fill="#EC3ABF"/>
<path d="M573.581 268.75H589.995V285.543H573.581V268.75Z" fill="#EC3ABF"/>
<path d="M573.581 251.957H589.995V268.75H573.581V251.957Z" fill="#EC3ABF"/>
<path d="M573.581 235.165H589.995V251.957H573.581V235.165Z" fill="#A236EE"/>
<path d="M573.581 218.364H589.995V235.164H573.581V218.364Z" fill="#A236EE"/>
<path d="M573.581 201.572H589.995V218.365H573.581V201.572Z" fill="#01011E"/>
<path d="M573.581 184.779H589.995V201.572H573.581V184.779Z" fill="#A97C50"/>
<path d="M573.581 167.986H589.995V184.779H573.581V167.986Z" fill="#A97C50"/>
<path d="M573.581 151.179H589.995V167.979H573.581V151.179Z" fill="#A97C50"/>
<path d="M573.581 134.387H589.995V151.179H573.581V134.387Z" fill="#030328"/>
<path fill-rule="evenodd" clip-rule="evenodd" d="M589.994 100.801H573.58V117.594H589.994V100.801ZM573.58 100.801H557.173V117.594H573.58V100.801ZM507.96 100.801H491.553V117.594H507.96V100.801ZM524.374 117.594H491.563V134.387H524.374V117.594ZM507.96 100.801H524.374V117.594H507.96V100.801ZM557.173 117.594H589.995V134.387H557.173V117.594Z" fill="white"/>
<path d="M573.581 84.001H589.995V100.801H573.581V84.001Z" fill="#030328"/>
<path d="M573.581 67.208H589.995V84.0008H573.581V67.208Z" fill="#FEB179"/>
<path d="M573.581 50.4092H589.995V67.2019H573.581V50.4092Z" fill="#F7941D"/>
<path d="M573.581 33.6162H589.995V50.409H573.581V33.6162Z" fill="#F7941D"/>
<path d="M573.581 16.8164H589.995V33.6163H573.581V16.8164Z" fill="#F7941D"/>
<path d="M573.581 0.0234375H589.995V16.8162H573.581V0.0234375Z" fill="#030328"/>
<path d="M589.987 621.462H606.394V638.255H589.987V621.462Z" fill="#030328"/>
<path d="M589.987 604.668H606.394V621.461H589.987V604.668Z" fill="white"/>
<path d="M589.987 587.87H606.394V604.662H589.987V587.87Z" fill="#3722E2"/>
<path d="M589.987 571.069H606.394V587.869H589.987V571.069Z" fill="#3722E2"/>
<path d="M589.987 554.277H606.394V571.07H589.987V554.277Z" fill="#3722E2"/>
<path d="M589.987 537.483H606.394V554.276H589.987V537.483Z" fill="#3722E2"/>
<path d="M589.987 520.691H606.394V537.484H589.987V520.691Z" fill="#3722E2"/>
<path d="M589.987 503.892H606.394V520.692H589.987V503.892Z" fill="#3722E2"/>
<path d="M589.987 487.099H606.394V503.892H589.987V487.099Z" fill="#3722E2"/>
<path d="M589.987 470.298H606.394V487.091H589.987V470.298Z" fill="#3722E2"/>
<path d="M589.988 436.707H606.395V470.299H589.988V436.707Z" fill="#3722E2"/>
<path d="M589.987 319.143H606.394V335.936H589.987V319.143Z" fill="#030328"/>
<path d="M589.987 302.343H606.394V319.143H589.987V302.343Z" fill="#030328"/>
<path d="M589.987 285.55H606.394V302.343H589.987V285.55Z" fill="#EC3ABF"/>
<path d="M589.987 268.75H606.394V285.543H589.987V268.75Z" fill="#EC3ABF"/>
<path d="M589.987 251.957H606.394V268.75H589.987V251.957Z" fill="#EC3ABF"/>
<path d="M589.987 235.165H606.394V251.957H589.987V235.165Z" fill="#A236EE"/>
<path d="M589.987 218.364H606.394V235.164H589.987V218.364Z" fill="#01011E"/>
<path d="M589.987 201.572H606.394V218.365H589.987V201.572Z" fill="#01011E"/>
<path d="M589.987 184.779H606.394V201.572H589.987V184.779Z" fill="#A97C50"/>
<path d="M589.987 167.986H606.394V184.779H589.987V167.986Z" fill="#A97C50"/>
<path d="M589.987 151.179H606.394V167.979H589.987V151.179Z" fill="#A97C50"/>
<path d="M589.987 134.387H606.394V151.179H589.987V134.387Z" fill="#030328"/>
<path d="M589.987 117.594H606.394V134.387H589.987V117.594Z" fill="#030328"/>
<path d="M589.987 100.801H606.394V117.594H589.987V100.801Z" fill="#030328"/>
<path d="M589.987 84.001H606.394V100.801H589.987V84.001Z" fill="#030328"/>
<path d="M589.987 67.208H606.394V84.0008H589.987V67.208Z" fill="#FEB179"/>
<path d="M589.987 50.4092H606.394V67.2019H589.987V50.4092Z" fill="#F7941D"/>
<path d="M589.987 33.6162H606.394V50.409H589.987V33.6162Z" fill="#F7941D"/>
<path d="M589.987 16.8164H606.394V33.6163H589.987V16.8164Z" fill="#F7941D"/>
<path d="M589.987 0.0234375H606.394V16.8162H589.987V0.0234375Z" fill="#030328"/>
<path d="M606.394 604.668H622.801V621.461H606.394V604.668Z" fill="#030328"/>
<path d="M606.394 587.87H622.801V604.662H606.394V587.87Z" fill="#030328"/>
<path d="M606.394 571.069H622.801V587.869H606.394V571.069Z" fill="#030328"/>
<path d="M606.394 554.277H622.801V571.07H606.394V554.277Z" fill="#030328"/>
<path d="M606.394 537.483H622.801V554.276H606.394V537.483Z" fill="#030328"/>
<path d="M606.394 520.691H622.801V537.484H606.394V520.691Z" fill="#030328"/>
<path d="M606.394 503.892H622.801V520.692H606.394V503.892Z" fill="#030328"/>
<path d="M606.394 487.099H622.801V503.892H606.394V487.099Z" fill="#030328"/>
<path d="M606.394 351.17H622.801V487.092H606.394V351.17Z" fill="#030328"/>
<path d="M606.394 319.143H622.801V335.936H606.394V319.143Z" fill="#EC3ABF"/>
<path d="M606.394 302.343H622.801V319.143H606.394V302.343Z" fill="#A236EE"/>
<path d="M606.394 285.55H622.801V302.343H606.394V285.55Z" fill="#EC3ABF"/>
<path d="M606.394 268.75H622.801V285.543H606.394V268.75Z" fill="#EC3ABF"/>
<path d="M606.394 251.957H622.801V268.75H606.394V251.957Z" fill="#A236EE"/>
<path d="M606.394 235.165H622.801V251.957H606.394V235.165Z" fill="#A236EE"/>
<path d="M606.394 218.364H622.801V235.164H606.394V218.364Z" fill="#030328"/>
<path d="M606.394 201.572H622.801V218.365H606.394V201.572Z" fill="#030328"/>
<path d="M606.394 184.779H622.801V201.572H606.394V184.779Z" fill="#030328"/>
<path d="M606.394 167.986H622.801V184.779H606.394V167.986Z" fill="#030328"/>
<path d="M606.394 151.179H622.801V167.979H606.394V151.179Z" fill="#A97C50"/>
<path d="M606.394 134.387H622.801V151.179H606.394V134.387Z" fill="#FEB179"/>
<path d="M606.394 117.594H622.801V134.387H606.394V117.594Z" fill="#030328"/>
<path d="M606.394 100.801H622.801V117.594H606.394V100.801Z" fill="#F7941D"/>
<path d="M606.394 84.001H622.801V100.801H606.394V84.001Z" fill="#F7941D"/>
<path d="M606.394 67.208H622.801V84.0008H606.394V67.208Z" fill="#F7941D"/>
<path d="M606.394 50.4092H622.801V67.2019H606.394V50.4092Z" fill="#F7941D"/>
<path d="M606.394 33.6162H622.801V50.409H606.394V33.6162Z" fill="#F7941D"/>
<path d="M606.394 16.8164H622.801V33.6163H606.394V16.8164Z" fill="#030328"/>
<path d="M622.794 319.143H639.201V335.936H622.794V319.143Z" fill="#EC3ABF"/>
<path d="M622.794 302.343H639.201V319.143H622.794V302.343Z" fill="#A236EE"/>
<path d="M622.794 285.55H639.201V302.343H622.794V285.55Z" fill="#A236EE"/>
<path d="M622.794 268.75H639.201V285.543H622.794V268.75Z" fill="#A236EE"/>
<path d="M622.794 251.957H639.201V268.75H622.794V251.957Z" fill="#A236EE"/>
<path d="M622.794 235.165H639.201V251.957H622.794V235.165Z" fill="#030328"/>
<path d="M622.794 167.986H639.201V184.779H622.794V167.986Z" fill="#030328"/>
<path d="M622.794 151.179H639.201V167.979H622.794V151.179Z" fill="#030328"/>
<path d="M622.794 134.387H639.201V151.179H622.794V134.387Z" fill="#FEB179"/>
<path d="M622.794 117.594H639.201V134.387H622.794V117.594Z" fill="#030328"/>
<path d="M622.794 100.801H639.201V117.594H622.794V100.801Z" fill="#FEB179"/>
<path d="M622.794 84.001H639.201V100.801H622.794V84.001Z" fill="#FEB179"/>
<path d="M622.794 67.208H639.201V84.0008H622.794V67.208Z" fill="#F7941D"/>
<path d="M622.794 50.4092H639.201V67.2019H622.794V50.4092Z" fill="#F7941D"/>
<path d="M622.794 33.6162H639.201V50.409H622.794V33.6162Z" fill="#030328"/>
<path d="M639.2 319.143H655.614V335.936H639.2V319.143Z" fill="#030328"/>
<path d="M639.2 302.343H655.614V319.143H639.2V302.343Z" fill="#030328"/>
<path d="M639.2 285.55H655.614V302.343H639.2V285.55Z" fill="#030328"/>
<path d="M639.2 268.75H655.614V285.543H639.2V268.75Z" fill="#030328"/>
<path d="M639.2 251.957H655.614V268.75H639.2V251.957Z" fill="#030328"/>
<path d="M639.2 151.179H655.614V167.979H639.2V151.179Z" fill="#030328"/>
<path d="M639.2 134.387H655.614V151.179H639.2V134.387Z" fill="#030328"/>
<path d="M639.2 117.594H655.614V134.387H639.2V117.594Z" fill="#030328"/>
<path d="M639.2 100.801H655.614V117.594H639.2V100.801Z" fill="#030328"/>
<path d="M639.2 84.001H655.614V100.801H639.2V84.001Z" fill="#030328"/>
<path d="M639.2 67.208H655.614V84.0008H639.2V67.208Z" fill="#030328"/>
<path d="M639.2 50.4092H655.614V67.2019H639.2V50.4092Z" fill="#030328"/>
<path d="M491.562 115.256H507.969V132.049H491.562V115.256Z" fill="#030328"/>
<path d="M557.173 115.26H573.58V132.053H557.173V115.26Z" fill="#030328"/>
<path d="M622.794 301.949L622.794 318.355L606.508 318.355L606.508 301.949L622.794 301.949Z" fill="#FEB179"/>
<path d="M622.794 318.35L622.794 334.757L606.508 334.757L606.508 318.35L622.794 318.35Z" fill="#FEB179"/>
<path d="M607.053 301.949H622.794V334.755H607.053V301.949Z" fill="#EC3ABF"/>
<path d="M491.512 236.716L491.512 253.123L426.21 253.123L426.21 236.716L491.512 236.716Z" fill="#030328"/>
<path d="M491.512 253.122L491.512 269.529L441.422 269.529L441.422 253.122L491.512 253.122Z" fill="#FEB179"/>
<path d="M491.491 269.355L491.491 286.539L441.342 286.539L441.342 269.355L491.491 269.355Z" fill="#FEB179"/>
<path d="M441.422 253.12L441.422 269.526L424.63 269.526L424.63 253.12L441.422 253.12Z" fill="#FEB179"/>
<path d="M426.209 253.12L426.209 269.526L409.417 269.526L409.417 253.12L426.209 253.12Z" fill="#030328"/>
<path d="M441.422 269.519L441.422 285.926L424.63 285.926L424.63 269.519L441.422 269.519Z" fill="#FEB179"/>
<path d="M426.209 269.519L426.209 285.926L409.417 285.926L409.417 269.519L426.209 269.519Z" fill="#030328"/>
<path d="M459.546 237.337L459.546 253.744L442.753 253.744L442.753 237.337L459.546 237.337Z" fill="#FEB179"/>
<path d="M309.397 561.73L309.435 576.011L309.473 590.291L309.511 604.572L309.549 618.776C309.549 618.819 309.583 618.857 309.629 618.857L323.845 618.819L338.062 618.781C338.104 618.781 338.142 618.747 338.142 618.7L338.104 604.576C338.104 604.534 338.07 604.496 338.024 604.496L323.888 604.534C323.845 604.534 323.807 604.5 323.807 604.454L323.769 590.249L323.731 575.968L323.693 561.688L323.655 543.261C323.655 543.218 323.621 534.735 323.575 534.735L309.439 543.218C309.397 543.218 309.359 547.475 309.359 547.521L309.397 561.726L309.397 561.73Z" fill="#3B1F76"/>
<path d="M323.769 544.468L323.761 564.491L323.753 584.514L323.744 604.537L338.041 604.542L338.049 584.518L338.057 564.495L338.062 544.476L338.07 524.453L323.778 524.444L323.769 544.468Z" fill="#030328"/>
<path d="M309.455 590.248L309.464 575.967L309.468 561.687L309.477 547.402L309.481 533.121L309.485 518.841L295.193 518.836L295.189 533.117L295.265 533.109L289.42 533.104L289.416 547.385L295.256 547.393L295.18 547.398L295.176 561.678L295.172 575.963L295.163 590.244L295.159 604.524L295.151 618.805L309.447 618.813L309.451 604.533L309.455 590.248Z" fill="#030328"/>
<path d="M323.74 618.818L309.447 618.814L309.439 633.094L323.735 633.099L338.028 633.107L352.32 633.111L352.324 618.831L352.332 604.55L338.04 604.542L338.032 618.826L323.74 618.818Z" fill="#030328"/>
<path d="M446.368 213.454L438.415 201.623C438.415 201.623 438.389 201.606 438.377 201.614L426.536 209.561L414.694 217.508C414.694 217.508 414.665 217.512 414.656 217.499L406.72 205.689C406.72 205.689 406.695 205.672 406.682 205.68L394.841 213.627L382.974 221.591L371.133 229.538C371.133 229.538 371.116 229.563 371.125 229.576L379.061 241.386C379.061 241.386 379.087 241.403 379.099 241.395L390.94 233.448L402.782 225.501C402.782 225.501 402.811 225.497 402.82 225.509L410.773 237.341L418.726 249.173C418.726 249.173 418.73 249.202 418.718 249.211L406.876 257.157L395.035 265.104C395.035 265.104 395.006 265.108 394.997 265.096L387.061 253.285C387.061 253.285 387.036 253.268 387.023 253.277L375.203 261.207C375.203 261.207 375.186 261.232 375.195 261.245L383.148 273.076L391.118 284.933L399.071 296.765C399.071 296.765 399.075 296.794 399.063 296.803L387.243 304.733C387.243 304.733 387.226 304.758 387.234 304.771L395.187 316.602L403.141 328.434C403.141 328.434 403.145 328.463 403.132 328.472L391.312 336.402C391.312 336.402 391.295 336.427 391.304 336.44L399.24 348.25C399.24 348.25 399.244 348.28 399.232 348.288L387.412 356.218C387.412 356.218 387.395 356.243 387.403 356.256L395.357 368.088L403.327 379.944L411.28 391.776C411.28 391.776 411.305 391.793 411.318 391.784L423.138 383.854C423.138 383.854 423.168 383.85 423.176 383.863L431.129 395.694L439.082 407.526C439.082 407.526 439.108 407.543 439.12 407.534L450.962 399.588L462.828 391.624L474.669 383.677C474.669 383.677 474.699 383.673 474.707 383.686L482.644 395.496C482.644 395.496 482.669 395.513 482.682 395.504L494.502 387.575C494.502 387.575 494.519 387.549 494.51 387.537L486.557 375.705L478.587 363.848L470.633 352.017C470.633 352.017 470.629 351.987 470.642 351.979L482.462 344.049C482.462 344.049 482.479 344.023 482.47 344.011L474.517 332.179L466.547 320.322L458.577 308.465L450.607 296.609L442.653 284.777C442.653 284.777 442.628 284.76 442.615 284.769L430.795 292.698C430.795 292.698 430.766 292.703 430.757 292.69L422.821 280.88C422.821 280.88 422.817 280.85 422.829 280.842L434.671 272.895L446.537 264.931L458.404 256.967L470.245 249.021C470.245 249.021 470.262 248.995 470.253 248.983L462.317 237.172C462.317 237.172 462.313 237.143 462.325 237.134L474.145 229.204C474.145 229.204 474.162 229.179 474.154 229.166L466.217 217.356C466.217 217.356 466.192 217.339 466.179 217.347L454.359 225.277C454.359 225.277 454.33 225.281 454.321 225.269L446.368 213.437L446.368 213.454Z" fill="#9043C6"/>
<path d="M177.51 428.269L165.645 436.23L173.612 448.086L185.478 440.125L177.51 428.269Z" fill="#9043C6"/>
<path d="M197.347 432.162L185.482 440.123L193.449 451.979L205.315 444.018L197.347 432.162Z" fill="#9043C6"/>
<path d="M292.805 522.932L300.767 534.781C300.767 534.781 300.776 534.785 300.78 534.781L312.629 526.83C312.629 526.83 312.634 526.821 312.629 526.817L304.668 514.968L296.706 503.12C296.706 503.12 296.697 503.116 296.693 503.12L284.844 511.071C284.844 511.071 284.839 511.08 284.844 511.084L292.805 522.932Z" fill="#9043C6"/>
<path d="M375.862 467.196L375.862 467.204L364 475.164L352.133 483.127L340.267 491.091L328.405 499.05L328.396 499.05L320.435 487.206C320.435 487.206 320.43 487.206 320.426 487.206L308.572 495.161C308.572 495.161 308.572 495.166 308.572 495.17L316.538 507.023L324.504 518.875C324.504 518.875 324.508 518.875 324.513 518.875L336.375 510.916L348.241 502.952L360.108 494.988L371.974 487.025L383.841 479.061L395.703 471.101C395.703 471.101 395.703 471.097 395.703 471.093L387.737 459.24L379.771 447.388C379.771 447.388 379.767 447.388 379.763 447.388L367.909 455.343C367.909 455.343 367.909 455.347 367.909 455.351L375.871 467.196L375.862 467.196Z" fill="#9043C6"/>
<path d="M398.205 469.214L398.205 469.223L386.343 477.182L374.476 485.146L362.61 493.109L350.747 501.069L350.739 501.069L342.777 489.225C342.777 489.225 342.773 489.225 342.769 489.225L330.915 497.18C330.915 497.18 330.915 497.184 330.915 497.188L338.881 509.041L346.847 520.894C346.847 520.894 346.851 520.894 346.855 520.894L358.718 512.934L370.584 504.971L382.451 497.007L394.317 489.043L406.183 481.079L418.046 473.12C418.046 473.12 418.046 473.116 418.046 473.112L410.08 461.259L402.114 449.406C402.114 449.406 402.11 449.406 402.105 449.406L390.252 457.362C390.252 457.362 390.252 457.366 390.252 457.37L398.213 469.214L398.205 469.214Z" fill="#9043C6"/>
<path d="M478.815 415.324L490.584 407.428C490.61 407.411 490.618 407.373 490.601 407.348L482.699 395.588C482.682 395.563 473.22 381.531 473.195 381.548L461.425 389.444C461.4 389.461 470.815 403.522 470.832 403.548L478.735 415.308C478.752 415.333 478.79 415.341 478.815 415.324Z" fill="#9043C6"/>
<path d="M277.051 550.725L285.004 562.556C285.004 562.556 285.017 562.565 285.025 562.561L296.879 554.605L308.733 546.65C308.733 546.65 308.741 546.637 308.737 546.629L300.784 534.797C300.784 534.797 300.771 534.789 300.763 534.793L288.909 542.748L277.055 550.704C277.055 550.704 277.047 550.716 277.051 550.725Z" fill="#9043C6"/>
<path d="M447.239 470.924L447.239 470.915L459.101 462.96L459.101 462.956L451.135 451.103L451.131 451.103L439.273 459.063L439.269 459.058L431.303 447.21L431.298 447.21L419.436 455.165L419.432 455.165L411.466 443.317L411.462 443.313L399.604 451.272L399.6 451.276L407.57 463.129L415.536 474.986L415.54 474.986L427.402 467.026L427.406 467.026L435.372 478.883" fill="#9043C6"/>
<path d="M258.896 584.506L258.934 598.786L258.972 613.067L259.011 627.348L259.049 641.552C259.049 641.594 259.082 641.632 259.129 641.632L273.345 641.594L287.561 641.556C287.603 641.556 287.641 641.523 287.641 641.476L287.603 627.352C287.603 627.31 287.57 627.272 287.523 627.272L273.387 627.31C273.345 627.31 273.307 627.276 273.307 627.229L273.269 613.025L273.231 598.744L273.193 584.464L273.155 549.146C273.155 549.104 273.121 570.179 273.074 570.179L258.939 549.104C258.896 549.104 258.858 570.25 258.858 570.297L258.896 584.501L258.896 584.506Z" fill="#9043C6"/>
<path d="M373.284 181.56C371.987 179.63 369.87 176.476 368.573 174.55L362.994 166.249C362.977 166.223 362.939 166.215 362.914 166.232L351.145 174.128C351.119 174.145 351.111 174.183 351.128 174.208L356.706 182.51C358.003 184.439 360.121 187.594 361.418 189.519L364.676 194.367C365.974 196.296 368.091 199.451 369.388 201.376L374.966 209.678C374.983 209.703 374.979 209.741 374.95 209.758L363.18 217.654C363.155 217.671 363.146 217.709 363.163 217.734L371.066 229.494C371.083 229.519 371.079 229.557 371.049 229.574L362.741 235.148L355.726 239.856L350.874 243.112L347.367 245.468C347.367 245.468 346.306 243.889 345.009 241.963L341.75 237.116C340.453 235.186 338.336 232.032 337.038 230.106L331.46 221.805C331.443 221.779 331.405 221.771 331.38 221.788L319.611 229.684C319.585 229.701 319.547 229.697 319.53 229.667L313.952 221.366C312.655 219.436 310.538 216.282 309.24 214.356L303.662 206.055C303.645 206.029 303.607 206.021 303.582 206.038L291.812 213.934C291.787 213.951 291.779 213.989 291.795 214.014L297.374 222.316C298.671 224.245 300.788 227.4 302.086 229.325L305.344 234.172C306.641 236.102 308.758 239.256 310.056 241.182L313.314 246.029C314.611 247.959 316.729 251.113 318.026 253.039L321.284 257.886C322.581 259.816 323.642 261.391 323.642 261.391C323.642 261.391 324.703 262.97 326 264.896L329.258 269.743C330.556 271.673 332.673 274.827 333.97 276.753L339.549 285.054C339.566 285.079 339.561 285.117 339.532 285.134L327.762 293.03C327.737 293.047 327.729 293.085 327.746 293.111L333.324 301.412C334.621 303.342 336.738 306.496 338.036 308.422L341.294 313.269C342.591 315.199 344.709 318.353 346.006 320.278L351.584 328.58C351.601 328.605 351.639 328.614 351.664 328.597L363.434 320.701C363.459 320.684 363.497 320.688 363.514 320.718L369.092 329.019C370.39 330.949 372.507 334.103 373.804 336.028L379.383 344.33C379.399 344.355 379.437 344.364 379.463 344.347L391.232 336.451C391.257 336.434 391.266 336.396 391.249 336.37L383.346 324.611C383.33 324.585 383.334 324.547 383.363 324.53L395.133 316.634C395.158 316.617 395.166 316.579 395.15 316.554L387.247 304.794C387.23 304.769 387.234 304.731 387.264 304.714L399.033 296.818C399.059 296.801 399.067 296.763 399.05 296.738L393.472 288.436C392.174 286.507 390.057 283.352 388.76 281.427L385.502 276.579C384.204 274.65 382.087 271.495 380.79 269.57L375.212 261.268C375.195 261.243 375.199 261.205 375.228 261.188L386.998 253.292C387.023 253.275 387.031 253.237 387.015 253.212L381.436 244.91C380.139 242.981 378.022 239.826 376.724 237.901L371.146 229.599C371.129 229.574 371.133 229.536 371.163 229.519L379.471 223.946L386.486 219.237L391.338 215.982L398.353 211.274L406.661 205.7C406.686 205.683 406.695 205.645 406.678 205.62L401.1 197.318C399.802 195.389 398.742 193.814 398.746 193.814C398.75 193.814 397.685 192.234 396.392 190.309L390.814 182.007C390.797 181.982 390.759 181.974 390.733 181.99L378.964 189.887C378.939 189.903 378.901 189.899 378.884 189.87L373.306 181.568L373.284 181.56Z" fill="#3722E2"/>
<path d="M193.457 451.964L185.496 440.12C185.496 440.12 185.491 440.12 185.487 440.12L173.633 448.075C173.633 448.075 173.633 448.079 173.633 448.083L179.241 456.427L183.953 463.436L189.561 471.78C189.561 471.78 189.565 471.78 189.569 471.78L197.92 466.177L204.935 461.469L213.285 455.865C213.285 455.865 213.285 455.861 213.285 455.857L205.324 444.013C205.324 444.013 205.319 444.013 205.315 444.013L193.461 451.968L193.453 451.968L193.457 451.964Z" fill="#3722E2"/>
<path d="M225.139 447.915L213.288 455.867C213.284 455.869 213.283 455.875 213.285 455.879L221.243 467.72C221.246 467.724 221.251 467.725 221.255 467.723L233.106 459.771C233.11 459.769 233.111 459.764 233.109 459.76L225.151 447.918C225.148 447.914 225.143 447.913 225.139 447.915Z" fill="#3722E2"/>
<path d="M359.195 357.961L352.18 362.669L347.329 365.925L340.314 370.633L335.462 373.888L328.447 378.597L323.596 381.852L316.581 386.56L311.729 389.816L304.714 394.524L296.368 400.127C296.368 400.127 296.36 400.14 296.368 400.144L304.321 411.98C304.321 411.98 304.321 411.993 304.321 411.997L295.975 417.6L288.96 422.308L284.109 425.564C282.177 426.86 279.021 428.976 277.094 430.272L272.242 433.528L265.227 438.236L260.376 441.491L253.361 446.199L248.509 449.455L241.494 454.163L233.148 459.766C233.148 459.766 233.139 459.779 233.148 459.783L241.101 471.619C241.101 471.619 241.101 471.632 241.101 471.636L229.256 479.583C229.256 479.583 229.247 479.595 229.256 479.6L234.864 487.939C236.161 489.869 238.278 493.023 239.575 494.948L245.183 503.288C245.183 503.288 245.183 503.301 245.183 503.305L233.338 511.252C233.338 511.252 233.33 511.264 233.338 511.269L238.946 519.608C240.243 521.538 242.36 524.692 243.658 526.617L246.916 531.465C248.213 533.395 250.331 536.549 251.628 538.474L254.886 543.322C256.183 545.252 258.301 548.406 259.598 550.331L262.856 555.179C264.154 557.108 266.271 560.263 267.568 562.188L273.176 570.528C273.176 570.528 273.189 570.536 273.193 570.528L285.038 562.581C285.038 562.581 285.047 562.568 285.038 562.564L277.085 550.728C277.085 550.728 277.085 550.715 277.085 550.711L285.431 545.108C287.363 543.812 290.519 541.696 292.446 540.4L300.793 534.797C300.793 534.797 300.801 534.784 300.793 534.78L295.185 526.44L290.473 519.431L284.865 511.091C284.865 511.091 284.865 511.079 284.865 511.074L293.211 505.471L300.226 500.763L305.078 497.507C307.009 496.211 310.166 494.096 312.093 492.799L320.439 487.196C320.439 487.196 320.452 487.196 320.456 487.196L328.409 499.032C328.409 499.032 328.422 499.04 328.426 499.032L336.772 493.428L343.788 488.72L348.639 485.465C350.57 484.168 353.727 482.053 355.654 480.757L360.505 477.501L367.52 472.793L375.867 467.19C375.867 467.19 375.875 467.177 375.867 467.173L367.913 455.337C367.913 455.337 367.913 455.324 367.913 455.32L379.759 447.373C379.759 447.373 379.771 447.373 379.776 447.373L387.729 459.209C387.729 459.209 387.742 459.217 387.746 459.209L396.092 453.606C398.023 452.309 401.18 450.194 403.107 448.898L411.453 443.294C411.453 443.294 411.466 443.294 411.47 443.294L419.424 455.13C419.424 455.13 419.436 455.138 419.441 455.13L431.286 447.183C431.286 447.183 431.299 447.183 431.303 447.183L439.256 459.019C439.256 459.019 439.269 459.027 439.273 459.019L447.619 453.416C449.55 452.119 452.707 450.004 454.634 448.708L462.981 443.104C462.981 443.104 462.989 443.092 462.981 443.087L455.027 431.252C455.027 431.252 455.027 431.239 455.027 431.235L466.873 423.288C466.873 423.288 466.881 423.275 466.873 423.271L461.265 414.932C459.967 413.002 457.85 409.848 456.553 407.922L450.945 399.583C450.945 399.583 450.932 399.574 450.928 399.583L439.083 407.529C439.083 407.529 439.07 407.529 439.066 407.529L433.458 399.19C432.161 397.26 430.043 394.106 428.746 392.18L423.138 383.841C423.138 383.841 423.126 383.833 423.121 383.841L411.276 391.788C411.276 391.788 411.263 391.788 411.259 391.788L405.651 383.448C404.354 381.519 402.237 378.364 400.939 376.439L397.681 371.591C396.384 369.662 394.267 366.507 392.969 364.582L389.711 359.735C388.414 357.805 386.296 354.651 384.999 352.725L379.391 344.386C379.391 344.386 379.378 344.377 379.374 344.386L371.028 349.989L364.013 354.697L359.162 357.953L359.195 357.961Z" fill="#3722E2"/>
<path d="M498.613 419.272C498.613 419.272 498.609 419.243 498.621 419.234L510.441 411.304C510.441 411.304 510.458 411.279 510.45 411.266L504.855 402.939C503.557 401.01 501.44 397.855 500.143 395.93L494.548 387.603C494.548 387.603 494.522 387.586 494.51 387.595L482.69 395.525C482.69 395.525 482.673 395.55 482.681 395.563L490.618 407.373C490.618 407.373 490.622 407.403 490.609 407.411L482.275 413.002L475.26 417.71L466.927 423.3C466.927 423.3 466.91 423.326 466.918 423.338L474.855 435.149C474.855 435.149 474.88 435.166 474.893 435.157L486.713 427.227C486.713 427.227 486.742 427.223 486.751 427.236" fill="#3722E2"/>
<path d="M390.94 233.461L379.075 241.421L387.042 253.277L398.907 245.316L390.94 233.461Z" fill="#EDEDE8"/>
<path d="M402.785 225.512L379.075 241.42L395.012 265.135L418.721 249.228L402.785 225.512Z" fill="#EDEDE8"/>
<path d="M363.481 320.681L351.614 328.641L359.584 340.497L347.718 348.461L355.688 360.318L367.55 352.354L379.417 344.395L371.451 332.538L363.481 320.681Z" fill="#3B1F76"/>
<path d="M422.808 280.872L430.778 292.729L442.644 284.765L454.511 276.802L446.541 264.945L434.674 272.909L422.808 280.872Z" fill="#3B1F76"/>
<path d="M395.179 316.631L383.314 324.592L391.281 336.448L403.147 328.487L395.179 316.631Z" fill="#3B1F76"/>
<path d="M416.376 269.48L404.511 277.441L412.478 289.297L424.343 281.336L416.376 269.48Z" fill="#3B1F76"/>
<path d="M213.294 455.861L201.427 463.825L209.397 475.682L217.363 487.539L229.23 479.575L241.096 471.611L233.13 459.759L221.264 467.718L213.294 455.861Z" fill="#3B1F76"/>
<path d="M391.284 336.452L379.418 344.413L387.386 356.268L399.251 348.308L391.284 336.452Z" fill="#3B1F76"/>
<path d="M303.633 206.023L291.767 213.984L299.734 225.84L311.6 217.879L303.633 206.023Z" fill="#030328"/>
<path d="M323.466 209.917L311.601 217.878L319.568 229.734L331.433 221.773L323.466 209.917Z" fill="#030328"/>
<path d="M351.267 225.658L343.297 213.801L331.431 221.76L339.401 233.617L347.371 245.474L359.237 237.515L371.1 229.551L363.134 217.694L351.267 225.658Z" fill="#030328"/>
<path d="M418.566 197.699L410.596 185.847L402.63 173.99L390.763 181.949L382.793 170.093L370.927 178.056L362.961 166.199L351.094 174.163L343.124 162.306L331.258 170.27L339.228 182.123L347.194 193.979L355.164 205.836L363.134 217.693L375.001 209.729L367.031 197.877L359.06 186.02L370.927 178.056L378.897 189.913L390.763 181.949L398.729 193.806L406.7 205.663L414.67 217.52L426.532 209.556L438.398 201.597L430.432 189.74L418.566 197.699Z" fill="#030328"/>
<path d="M331.609 273.254L323.638 261.397L315.668 249.544L307.702 237.687L299.732 225.83L291.762 213.974L283.796 202.117L271.93 210.08L279.9 221.937L287.866 233.79L295.836 245.647L303.802 257.504L311.772 269.361L319.742 281.217L327.708 293.074L339.575 285.111L331.609 273.254Z" fill="#030328"/>
<path d="M438.398 201.597L446.368 213.454L454.338 225.306L466.2 217.347L474.171 229.204L486.037 221.24L478.067 209.383L470.101 197.526L462.131 185.669L450.264 193.633L438.398 201.597Z" fill="#030328"/>
<path d="M412.168 238.24L407.976 232.003L396.11 239.962L400.302 246.199L404.494 252.436L416.361 244.476L412.168 238.24Z" fill="#030328"/>
<path d="M474.177 229.22L462.312 237.181L470.279 249.037L482.144 241.076L474.177 229.22Z" fill="#030328"/>
<path d="M173.625 448.076L185.492 440.112L177.522 428.255L165.659 436.219L165.655 436.219L157.689 424.362L145.823 432.326L153.793 444.182L161.759 456.035L169.729 467.892L177.699 479.749L189.561 471.789L181.595 459.932L173.625 448.076Z" fill="#030328"/>
<path d="M197.347 432.162L185.482 440.123L193.449 451.979L205.315 444.018L197.347 432.162Z" fill="#030328"/>
<path d="M351.614 328.641L343.649 316.788L335.678 304.931L327.708 293.074L315.842 301.034L323.812 312.891L331.782 324.747L339.748 336.604L347.718 348.461L359.585 340.497L351.614 328.641Z" fill="#030328"/>
<path d="M446.542 264.944L454.512 276.801L466.378 268.842L478.24 260.878L470.274 249.021L458.408 256.985L446.542 264.944Z" fill="#030328"/>
<path d="M217.18 436.056L205.314 444.017L213.282 455.873L225.147 447.912L217.18 436.056Z" fill="#030328"/>
<path d="M320.089 384.205L331.955 376.241L343.822 368.277L355.688 360.318L347.718 348.461L335.852 356.425L323.985 364.384L312.119 372.348L300.252 380.307L288.39 388.271L296.356 400.128L308.223 392.164L320.089 384.205Z" fill="#030328"/>
<path d="M450.611 296.621L458.581 308.478L466.551 320.335L474.517 332.187L482.487 344.044L494.354 336.085L486.384 324.228L478.418 312.371L470.448 300.514L462.477 288.657L454.512 276.8L442.645 284.764L450.611 296.621Z" fill="#030328"/>
<path d="M201.428 463.825L189.561 471.789L197.531 483.642L205.501 495.498L217.364 487.539L209.398 475.682L201.428 463.825Z" fill="#030328"/>
<path d="M244.993 451.795L256.86 443.832L268.726 435.872L280.592 427.908L292.459 419.945L304.325 411.985L296.355 400.128L284.489 408.092L272.622 416.052L260.76 424.015L248.894 431.975L237.027 439.938L225.161 447.902L233.131 459.759L244.993 451.795Z" fill="#030328"/>
<path d="M237.2 491.433L229.23 479.576L217.363 487.539L225.333 499.396L233.304 511.249L245.17 503.289L237.2 491.433Z" fill="#030328"/>
<path d="M477.083 361.619L483.54 371.229L490.001 380.84L496.459 390.45L502.92 400.061L514.782 392.101L508.325 382.491L501.864 372.876L495.406 363.265L488.949 353.655L482.488 344.044L470.621 352.008L477.083 361.619Z" fill="#030328"/>
<path d="M316.538 507.009L308.568 495.152L296.702 503.116L304.672 514.973L312.642 526.826L324.508 518.866L316.538 507.009Z" fill="#030328"/>
<path d="M470.794 403.502L462.828 391.645L450.961 399.609L458.927 411.461L466.898 423.318L478.764 415.359L470.794 403.502Z" fill="#030328"/>
<path d="M256.428 545.658L250.647 537.057L244.866 528.456L239.085 519.855L233.304 511.249L221.437 519.213L227.219 527.814L233 536.415L238.781 545.017L244.562 553.622L250.343 562.223L262.209 554.26L256.428 545.658Z" fill="#030328"/>
<path d="M466.898 423.347L455.032 431.308L462.999 443.163L474.865 435.203L466.898 423.347Z" fill="#030328"/>
<path d="M462.999 443.163L344.333 522.778L352.301 534.634L470.966 455.019L462.999 443.163Z" fill="#030328"/>
<path d="M490.807 407.455L455.607 431.071L463.574 442.927L498.774 419.311L490.807 407.455Z" fill="#030328"/>
<path d="M273.167 576.365L273.21 593.348L273.256 610.331L273.298 627.314L287.59 627.276L287.548 610.293L287.506 593.31L287.459 576.327L287.417 559.344L273.125 559.382L273.167 576.365Z" fill="#030328"/>
<path d="M393.886 467.693L399.862 476.586L405.837 485.479L411.813 494.371L423.679 486.408L417.704 477.515L411.728 468.622L405.749 459.734L399.773 450.841L387.907 458.801L393.886 467.693Z" fill="#030328"/>
<path d="M258.964 611.184L258.926 595.957L258.888 580.735L258.845 565.509L258.807 550.282L244.515 550.32L244.553 565.547L244.595 580.769L244.633 595.995L244.671 611.218L244.71 626.444L244.752 641.671L259.044 641.633L259.006 626.406L258.964 611.184Z" fill="#030328"/>
<path d="M273.336 641.595L259.044 641.633L259.082 655.914L273.374 655.876L287.666 655.842L301.963 655.804L301.925 641.523L301.887 627.238L287.594 627.276L287.633 641.557L273.336 641.595Z" fill="#030328"/>
<path d="M519.021 371.11L519.067 371.169L530.908 363.176L542.75 355.178L554.595 347.181L566.436 339.184L578.277 331.186L570.277 319.354L558.432 327.352L546.591 335.349L534.75 343.343L522.905 351.34L511.063 359.338L499.222 367.335L487.377 375.333L495.381 387.164L507.222 379.167L507.176 379.108" fill="#030328"/>
<path d="M552.376 383.133L564.234 375.161L576.092 367.188L587.95 359.216L599.745 351.286C599.783 351.261 599.791 351.215 599.766 351.177L591.83 339.391L583.893 327.606C583.868 327.568 583.822 327.56 583.783 327.585L572.056 335.469C572.018 335.494 572.01 335.541 572.035 335.579L579.925 347.296C579.951 347.334 579.938 347.381 579.904 347.406L568.109 355.336L556.251 363.308L544.393 371.28L514.385 391.502C513.928 392.017 514.347 391.527 514.385 391.502L522.452 403.291C522.478 403.329 540.544 391.08 540.582 391.054L552.376 383.124L552.376 383.133Z" fill="#9043C6"/>
<path d="M540.37 391.075L552.228 383.103L564.086 375.131L575.944 367.159L587.739 359.229C587.777 359.203 587.786 359.157 587.76 359.119L579.824 347.334L571.888 335.549C571.862 335.511 571.816 335.502 571.778 335.528L560.051 343.411C560.013 343.436 560.004 343.483 560.03 343.521L567.919 355.238C567.945 355.276 567.932 355.323 567.898 355.348L556.104 363.278L544.246 371.25L532.388 379.222L502.379 399.444C501.923 399.959 502.341 399.469 502.379 399.444L510.446 411.233C510.472 411.271 528.538 399.022 528.576 398.997L540.37 391.067L540.37 391.075Z" fill="#9043C6"/>
<path d="M530.562 380.586L547.035 369.515L563.508 358.443L579.976 347.367L571.998 335.519L555.529 346.591L539.056 357.666L522.584 368.738L506.111 379.813L514.089 391.662L530.562 380.586Z" fill="#030328"/>
<path d="M566.318 373.66L549.418 385.023L532.518 396.386L515.619 407.745L498.719 419.108L506.698 430.956L523.597 419.597L540.497 408.235L557.397 396.872L574.296 385.513L591.2 374.15L608.1 362.787L600.121 350.939L583.221 362.302L566.318 373.66Z" fill="#030328"/>
<path d="M591.834 339.396L599.812 351.244L611.67 343.272L603.692 331.424L595.713 319.575L587.734 307.723L575.876 315.695L564.014 323.667L571.997 335.52L583.855 327.547L591.834 339.396Z" fill="#030328"/>
<path d="M327.914 516.548L308.754 529.402L289.589 542.255L270.429 555.109L278.399 566.97L297.559 554.116L316.72 541.263L335.88 528.41L355.041 515.556L347.075 503.699L327.914 516.548Z" fill="#030328"/>
<path d="M493.448 283.142L493.448 300.781L456.964 300.781L456.964 283.142L493.448 283.142Z" fill="#030328"/>
<path d="M607.375 283.262L607.375 300.533L507.999 300.533L507.999 283.262L607.375 283.262Z" fill="#030328"/>
<path d="M477.074 300.534L477.074 334.708L460.743 334.708L460.743 300.534L477.074 300.534Z" fill="#030328"/>
<path d="M608.071 300.533L608.071 317.804L477.074 317.804L477.074 300.533L608.071 300.533Z" fill="#FEB179"/>
<path d="M608.071 317.805L608.071 334.708L477.074 334.708L477.074 317.805L608.071 317.805Z" fill="#FEB179"/>
<path d="M656.022 334.708L656.022 351.979L476.727 351.979L476.727 334.708L656.022 334.708Z" fill="#030328"/>
<path d="M510.048 283.881L510.048 301.073L493.41 301.073L493.41 283.881L510.048 283.881Z" fill="#FEB179"/>
</svg>
